<svg width="90" height="90" viewBox="0 0 90 90" fill="none" xmlns="http://www.w3.org/2000/svg">
<rect width="90" height="90" transform="translate(90 3.93402e-06) rotate(90)" fill="black"/>
<rect x="20" y="20" width="10" height="10" fill="white"/>
<rect x="20" y="30" width="10" height="10" fill="white"/>
<rect x="30" y="20" width="10" height="10" fill="white"/>
<rect x="20" y="40" width="10" height="10" fill="white"/>
<rect x="20" y="50" width="10" height="10" fill="white"/>
<rect x="50" y="20" width="10" height="10" fill="white"/>
<rect x="60" y="20" width="10" height="10" fill="white"/>
<rect x="60" y="30" width="10" height="10" fill="white"/>
<rect x="60" y="40" width="10" height="10" fill="white"/>
<rect x="60" y="50" width="10" height="10" fill="white"/>
<rect x="60" y="60" width="10" height="10" fill="white"/>
<rect x="50" y="60" width="10" height="10" fill="white"/>
<rect x="30" y="60" width="10" height="10" fill="white"/>
<rect x="20" y="60" width="10" height="10" fill="white"/>
</svg>
